<mxfile host="app.diagrams.net" agent="Mozilla/5.0 (Windows NT 10.0; Win64; x64) AppleWebKit/537.36 (KHTML, like Gecko) Chrome/133.0.0.0 Safari/537.36 OPR/118.0.0.0" version="26.0.6">
  <diagram name="Страница — 1" id="qy_9ma9-YRpT3GwB27sr">
    <mxGraphModel dx="2829" dy="1572" grid="1" gridSize="10" guides="1" tooltips="1" connect="1" arrows="1" fold="1" page="1" pageScale="1" pageWidth="2339" pageHeight="3300" math="0" shadow="0">
      <root>
        <mxCell id="0" />
        <mxCell id="1" parent="0" />
        <mxCell id="rby4-qa5uh5Xg7oBXr7_-1" value="" style="sketch=0;aspect=fixed;pointerEvents=1;shadow=0;dashed=0;html=1;strokeColor=none;labelPosition=center;verticalLabelPosition=bottom;verticalAlign=top;align=center;fillColor=#00188D;shape=mxgraph.azure.computer" vertex="1" parent="1">
          <mxGeometry x="80" y="661.5" width="300" height="270" as="geometry" />
        </mxCell>
        <mxCell id="rby4-qa5uh5Xg7oBXr7_-2" value="&lt;font style=&quot;font-size: 24px;&quot;&gt;Форма создания набора&lt;/font&gt;" style="text;html=1;align=center;verticalAlign=middle;whiteSpace=wrap;rounded=0;" vertex="1" parent="1">
          <mxGeometry x="100" y="570" width="260" height="110" as="geometry" />
        </mxCell>
        <mxCell id="rby4-qa5uh5Xg7oBXr7_-3" value="" style="endArrow=classic;html=1;rounded=0;exitX=1;exitY=0.5;exitDx=0;exitDy=0;exitPerimeter=0;" edge="1" parent="1" source="rby4-qa5uh5Xg7oBXr7_-1" target="rby4-qa5uh5Xg7oBXr7_-4">
          <mxGeometry width="50" height="50" relative="1" as="geometry">
            <mxPoint x="790" y="710" as="sourcePoint" />
            <mxPoint x="1050" y="800" as="targetPoint" />
          </mxGeometry>
        </mxCell>
        <mxCell id="rby4-qa5uh5Xg7oBXr7_-4" value="" style="image;html=1;image=img/lib/clip_art/computers/Server_Rack_128x128.png" vertex="1" parent="1">
          <mxGeometry x="900" y="620" width="280" height="350" as="geometry" />
        </mxCell>
        <mxCell id="rby4-qa5uh5Xg7oBXr7_-5" value="&lt;font style=&quot;font-size: 24px;&quot;&gt;API создания набора&lt;br&gt;Backend&lt;/font&gt;" style="text;html=1;align=center;verticalAlign=middle;whiteSpace=wrap;rounded=0;" vertex="1" parent="1">
          <mxGeometry x="890" y="470" width="300" height="150" as="geometry" />
        </mxCell>
        <mxCell id="rby4-qa5uh5Xg7oBXr7_-6" value="" style="endArrow=classic;html=1;rounded=0;exitX=1;exitY=0.5;exitDx=0;exitDy=0;" edge="1" parent="1" source="rby4-qa5uh5Xg7oBXr7_-4" target="rby4-qa5uh5Xg7oBXr7_-7">
          <mxGeometry width="50" height="50" relative="1" as="geometry">
            <mxPoint x="1210" y="790" as="sourcePoint" />
            <mxPoint x="1560" y="800" as="targetPoint" />
          </mxGeometry>
        </mxCell>
        <mxCell id="rby4-qa5uh5Xg7oBXr7_-7" value="" style="image;aspect=fixed;html=1;points=[];align=center;fontSize=12;image=img/lib/azure2/databases/SQL_Database.svg;" vertex="1" parent="1">
          <mxGeometry x="1650" y="623" width="260.25" height="347" as="geometry" />
        </mxCell>
        <mxCell id="rby4-qa5uh5Xg7oBXr7_-8" value="&lt;font style=&quot;font-size: 24px;&quot;&gt;База данных&lt;/font&gt;" style="text;html=1;align=center;verticalAlign=middle;whiteSpace=wrap;rounded=0;" vertex="1" parent="1">
          <mxGeometry x="1615.13" y="500" width="330" height="150" as="geometry" />
        </mxCell>
        <mxCell id="rby4-qa5uh5Xg7oBXr7_-9" value="&lt;font style=&quot;font-size: 18px;&quot;&gt;1. Запрос на создание нового набора&lt;/font&gt;" style="text;html=1;align=center;verticalAlign=middle;whiteSpace=wrap;rounded=0;" vertex="1" parent="1">
          <mxGeometry x="520" y="800" width="250" height="110" as="geometry" />
        </mxCell>
        <mxCell id="rby4-qa5uh5Xg7oBXr7_-10" value="&lt;font style=&quot;font-size: 18px;&quot;&gt;2. Запрос на сохранение данных нового набора&lt;/font&gt;" style="text;html=1;align=center;verticalAlign=middle;whiteSpace=wrap;rounded=0;" vertex="1" parent="1">
          <mxGeometry x="1300" y="800" width="260" height="110" as="geometry" />
        </mxCell>
        <mxCell id="rby4-qa5uh5Xg7oBXr7_-11" value="&lt;font style=&quot;font-size: 36px;&quot;&gt;POST&lt;/font&gt;" style="text;html=1;align=center;verticalAlign=middle;whiteSpace=wrap;rounded=0;" vertex="1" parent="1">
          <mxGeometry x="520" y="630" width="270" height="160" as="geometry" />
        </mxCell>
        <mxCell id="rby4-qa5uh5Xg7oBXr7_-13" value="" style="curved=1;endArrow=classic;html=1;rounded=0;entryX=0.5;entryY=1;entryDx=0;entryDy=0;exitX=0.573;exitY=0.996;exitDx=0;exitDy=0;exitPerimeter=0;" edge="1" parent="1" source="rby4-qa5uh5Xg7oBXr7_-7" target="rby4-qa5uh5Xg7oBXr7_-4">
          <mxGeometry width="50" height="50" relative="1" as="geometry">
            <mxPoint x="1340" y="1040" as="sourcePoint" />
            <mxPoint x="1390" y="990" as="targetPoint" />
            <Array as="points">
              <mxPoint x="1740" y="1080" />
              <mxPoint x="1390" y="1410" />
              <mxPoint x="1080" y="1080" />
            </Array>
          </mxGeometry>
        </mxCell>
        <mxCell id="rby4-qa5uh5Xg7oBXr7_-14" value="&lt;font style=&quot;font-size: 18px;&quot;&gt;3. Ответ об успешном сохранении нового набора&lt;/font&gt;" style="text;html=1;align=center;verticalAlign=middle;whiteSpace=wrap;rounded=0;" vertex="1" parent="1">
          <mxGeometry x="1230" y="1340" width="350" height="180" as="geometry" />
        </mxCell>
        <mxCell id="rby4-qa5uh5Xg7oBXr7_-15" value="" style="curved=1;endArrow=classic;html=1;rounded=0;entryX=0.5;entryY=1;entryDx=0;entryDy=0;entryPerimeter=0;exitX=0.5;exitY=1;exitDx=0;exitDy=0;" edge="1" parent="1" source="rby4-qa5uh5Xg7oBXr7_-4" target="rby4-qa5uh5Xg7oBXr7_-1">
          <mxGeometry width="50" height="50" relative="1" as="geometry">
            <mxPoint x="1020" y="1130" as="sourcePoint" />
            <mxPoint x="1070" y="1080" as="targetPoint" />
            <Array as="points">
              <mxPoint x="1000" y="1130" />
              <mxPoint x="450" y="1450" />
            </Array>
          </mxGeometry>
        </mxCell>
        <mxCell id="rby4-qa5uh5Xg7oBXr7_-16" value="&lt;font style=&quot;font-size: 18px;&quot;&gt;4. Новый набор успешно создан&lt;/font&gt;" style="text;html=1;align=center;verticalAlign=middle;whiteSpace=wrap;rounded=0;" vertex="1" parent="1">
          <mxGeometry x="470" y="1320" width="350" height="140" as="geometry" />
        </mxCell>
      </root>
    </mxGraphModel>
  </diagram>
</mxfile>
